<svg width="20" height="19" viewBox="0 0 20 19" fill="none" xmlns="http://www.w3.org/2000/svg">
<path d="M17.97 18.385L14.614 15.029C13.166 15.689 11.591 16.02 10 16.002C8.36 16.022 6.737 15.668 5.254 14.967C4.10467 14.4062 3.07262 13.6318 2.213 12.685C1.30047 11.7068 0.583275 10.5633 0.0999999 9.31595L0 9.00195L0.105 8.68595C0.82781 6.84224 2.04426 5.23312 3.621 4.03495L1 1.41395L2.413 0.00195312L19.382 16.971L17.972 18.385H17.97ZM5.036 5.45095C3.75792 6.34687 2.74865 7.57466 2.117 9.00195C2.77892 10.5291 3.8843 11.8223 5.28986 12.7138C6.69542 13.6053 8.33636 14.0541 10 14.002C11.0498 14.0106 12.0936 13.8415 13.087 13.502L11.287 11.702C10.887 11.898 10.447 12.001 10 12.002C9.20589 11.997 8.44572 11.6793 7.88418 11.1178C7.32265 10.5562 7.00498 9.79606 7 9.00195C7 8.55495 7.103 8.11395 7.3 7.71195L5.036 5.45095ZM17.852 12.612L16.46 11.221C17.0456 10.5589 17.5256 9.8104 17.883 9.00195C17.222 7.47411 16.1168 6.18035 14.711 5.2887C13.3053 4.39705 11.6639 3.94872 10 4.00195C9.753 4.00195 9.505 4.01095 9.265 4.02795L7.5 2.26095C8.322 2.08495 9.16 1.99795 10 2.00195C11.64 1.98195 13.263 2.33595 14.746 3.03695C15.896 3.59695 16.927 4.37195 17.787 5.31895C18.6991 6.29592 19.4163 7.43803 19.9 8.68395L20 9.00195L19.895 9.31795C19.4268 10.536 18.7342 11.6554 17.853 12.618L17.852 12.612Z" fill="#F8FAFF"/>
</svg>
