<svg width="24" height="16" viewBox="0 0 24 16" fill="none" xmlns="http://www.w3.org/2000/svg">
<path d="M15.75 8.00001C15.75 8.96443 15.3549 9.88936 14.6517 10.5713C13.9484 11.2533 12.9946 11.6364 12 11.6364C11.0054 11.6364 10.0516 11.2533 9.34835 10.5713C8.64509 9.88936 8.25 8.96443 8.25 8.00001C8.25 7.03559 8.64509 6.11066 9.34835 5.42871C10.0516 4.74676 11.0054 4.36365 12 4.36365C12.9946 4.36365 13.9484 4.74676 14.6517 5.42871C15.3549 6.11066 15.75 7.03559 15.75 8.00001Z" fill="#96999C"/>
<path d="M0 8C0 8 4.5 0 12 0C19.5 0 24 8 24 8C24 8 19.5 16 12 16C4.5 16 0 8 0 8ZM12 13.0909C13.3924 13.0909 14.7277 12.5545 15.7123 11.5998C16.6969 10.6451 17.25 9.35019 17.25 8C17.25 6.64981 16.6969 5.35491 15.7123 4.40018C14.7277 3.44545 13.3924 2.90909 12 2.90909C10.6076 2.90909 9.27226 3.44545 8.28769 4.40018C7.30312 5.35491 6.75 6.64981 6.75 8C6.75 9.35019 7.30312 10.6451 8.28769 11.5998C9.27226 12.5545 10.6076 13.0909 12 13.0909Z" fill="#96999C"/>
</svg>
