<svg width="29" height="30" viewBox="0 0 29 30" fill="none" xmlns="http://www.w3.org/2000/svg">
<path d="M16.8668 29.6382H11.5385C11.2047 29.6382 10.8808 29.5242 10.6207 29.3149C10.3606 29.1056 10.1798 28.8137 10.1084 28.4876L9.51261 25.7298C8.71785 25.3816 7.96424 24.9461 7.26566 24.4314L4.57664 25.2877C4.25835 25.3892 3.91492 25.3788 3.60338 25.2582C3.29184 25.1376 3.03093 24.914 2.86398 24.6246L0.193986 20.0121C0.0287879 19.7225 -0.0332233 19.3854 0.0180977 19.0559C0.0694188 18.7264 0.231033 18.4242 0.476501 18.1985L2.56243 16.2955C2.46757 15.4335 2.46757 14.5637 2.56243 13.7017L0.476501 11.8031C0.230686 11.5773 0.0688513 11.2748 0.0175219 10.945C-0.0338075 10.6152 0.0284131 10.2778 0.193986 9.98796L2.85812 5.37257C3.02507 5.08319 3.28598 4.85963 3.59752 4.73901C3.90907 4.61839 4.2525 4.60796 4.57078 4.70946L7.2598 5.56579C7.61697 5.3023 7.98878 5.05638 8.3723 4.83388C8.74265 4.62602 9.12324 4.43719 9.51261 4.26885L10.1098 1.51396C10.1809 1.18782 10.3614 0.895773 10.6212 0.686244C10.8811 0.476716 11.2047 0.36229 11.5385 0.361938H16.8668C17.2006 0.36229 17.5243 0.476716 17.7841 0.686244C18.044 0.895773 18.2244 1.18782 18.2955 1.51396L18.8986 4.27032C19.3084 4.45183 19.7095 4.6553 20.0974 4.88219C20.459 5.09151 20.8088 5.32133 21.1455 5.56872L23.836 4.71239C24.1541 4.61126 24.4972 4.62188 24.8084 4.74248C25.1196 4.86309 25.3803 5.08643 25.5472 5.37549L28.2113 9.99089C28.5509 10.5867 28.4338 11.3405 27.9288 11.8046L25.8429 13.7075C25.9378 14.5695 25.9378 15.4394 25.8429 16.3014L27.9288 18.2043C28.4338 18.6698 28.5509 19.4222 28.2113 20.018L25.5472 24.6334C25.3803 24.9228 25.1193 25.1463 24.8078 25.267C24.4963 25.3876 24.1528 25.398 23.8345 25.2965L21.1455 24.4402C20.4475 24.9545 19.6943 25.3895 18.9 25.7371L18.2955 28.4876C18.2241 28.8135 18.0435 29.1052 17.7837 29.3144C17.5239 29.5237 17.2004 29.6379 16.8668 29.6382ZM14.1968 9.14481C12.6439 9.14481 11.1546 9.7617 10.0565 10.8598C8.95845 11.9578 8.34156 13.4471 8.34156 15.0001C8.34156 16.553 8.95845 18.0423 10.0565 19.1403C11.1546 20.2384 12.6439 20.8553 14.1968 20.8553C15.7497 20.8553 17.239 20.2384 18.3371 19.1403C19.4352 18.0423 20.0521 16.553 20.0521 15.0001C20.0521 13.4471 19.4352 11.9578 18.3371 10.8598C17.239 9.7617 15.7497 9.14481 14.1968 9.14481Z" fill="#F8FAFF"/>
</svg>
