<svg width="42" height="26" viewBox="0 0 42 26" fill="none" xmlns="http://www.w3.org/2000/svg">
<path fill-rule="evenodd" clip-rule="evenodd" d="M0.625 2.5C0.625 1.39543 1.52043 0.5 2.625 0.5H39.375C40.4796 0.5 41.375 1.39543 41.375 2.5C41.375 3.60457 40.4796 4.5 39.375 4.5H2.625C1.52043 4.5 0.625 3.60457 0.625 2.5ZM0.625 13C0.625 11.8954 1.52043 11 2.625 11H39.375C40.4796 11 41.375 11.8954 41.375 13C41.375 14.1046 40.4796 15 39.375 15H2.625C1.52043 15 0.625 14.1046 0.625 13ZM2.625 21.5C1.52043 21.5 0.625 22.3954 0.625 23.5C0.625 24.6046 1.52043 25.5 2.625 25.5H39.375C40.4796 25.5 41.375 24.6046 41.375 23.5C41.375 22.3954 40.4796 21.5 39.375 21.5H2.625Z" fill="white"/>
</svg>
