<svg width="28" height="12" viewBox="0 0 28 12" fill="none" xmlns="http://www.w3.org/2000/svg">
<path d="M4.83522 9H6.19885L6.55255 6.83523H7.74573L7.97158 5.47159H6.7784L7.05113 3.80114H8.24431L8.47442 2.4375H7.27698L7.63067 0.272727H6.26703L5.91334 2.4375H4.2088L4.56249 0.272727H3.19885L2.84516 2.4375H1.65624L1.42613 3.80114H2.61931L2.34658 5.47159H1.1534L0.927546 6.83523H2.12073L1.76703 9H3.13067L3.48436 6.83523H5.18891L4.83522 9ZM3.71022 5.47159L3.98294 3.80114H5.68749L5.41476 5.47159H3.71022ZM14.5128 11.5142C15.7273 11.5142 16.9162 11.2287 17.4489 10.9261L17.027 9.69034C16.571 9.87784 15.5909 10.125 14.6108 10.125C11.8324 10.125 10.3239 8.65057 10.3153 5.95739C10.3239 3.51989 11.7131 1.68324 14.5469 1.68324C16.5966 1.68324 18.5014 2.66335 18.4972 5.33949C18.5014 7.00568 18.1946 7.7642 17.6065 7.7642C17.3125 7.7642 17.1335 7.54261 17.1293 7.14631V2.98722H15.7954V3.46449H15.7358C15.5909 3.08949 14.6875 2.7358 13.7287 2.88068C12.5909 3.04688 11.3636 3.98011 11.3551 5.95739C11.3636 7.96449 12.5057 8.99148 13.8523 9.06392C14.8196 9.11932 15.6889 8.71449 15.8892 8.19886H15.9403C16.0341 8.78693 16.4261 9.1875 17.4148 9.11506C19.2557 9.01278 19.9588 7.52983 19.9545 5.4375C19.9588 2.40767 17.956 0.311079 14.5682 0.311079C10.9034 0.311079 8.80255 2.58239 8.79829 6.00852C8.80255 9.49006 10.8864 11.5142 14.5128 11.5142ZM14.3168 7.66193C13.2045 7.66193 12.8295 6.80966 12.8253 5.90625C12.8295 4.93466 13.3622 4.29972 14.3082 4.29972C15.3864 4.29972 15.7102 4.87074 15.7145 5.89347C15.7273 7.05256 15.3608 7.66193 14.3168 7.66193ZM23.3146 9.12784C24.0774 9.12784 24.9041 8.91477 25.5476 8.41193L26.076 9H27.968L26.6555 7.49574C27.1413 6.85227 27.4482 5.92756 27.4482 4.7429H25.9439C25.9439 5.31392 25.8033 5.82102 25.5732 6.25142L24.1328 4.59801L24.6442 4.23153C25.3771 3.70312 25.8033 3.03835 25.8033 2.21591C25.8033 1.09943 24.9382 0.15767 23.5362 0.15767C22.1044 0.15767 21.1541 1.13352 21.1541 2.39915C21.1541 3.17472 21.5291 3.82244 21.9851 4.40199C21.0348 5.05398 20.3956 5.67188 20.3956 6.68182C20.3956 8.05824 21.4993 9.12784 23.3146 9.12784ZM24.5675 7.32102C24.201 7.54688 23.8004 7.67045 23.4041 7.67045C22.6456 7.67045 22.1555 7.2017 22.1555 6.57955C22.1555 6.24716 22.3814 5.86364 22.8629 5.5142L22.9141 5.48011L24.5675 7.32102ZM23.2592 3.5625C22.9354 3.15341 22.7095 2.79119 22.7095 2.42898C22.7095 1.99006 23.0419 1.62358 23.549 1.61932C24.0604 1.61506 24.3501 1.97301 24.3501 2.31818C24.3501 2.68466 24.1499 2.98722 23.7152 3.2642L23.2592 3.5625Z" fill="white"/>
</svg>
