<svg width="26" height="26" viewBox="0 0 26 26" fill="none" xmlns="http://www.w3.org/2000/svg">
<path d="M0 11.5556H11.5491V0H0V11.5556ZM2.88728 2.88889H8.66185V8.66667H2.88728V2.88889ZM0 26H11.5491V14.4444H0V26ZM2.88728 17.3333H8.66185V23.1111H2.88728V17.3333ZM14.4364 0V11.5556H25.9856V0H14.4364ZM23.0983 8.66667H17.3237V2.88889H23.0983V8.66667ZM14.4509 14.4444H17.3381V17.3333H14.4509V14.4444ZM17.3381 17.3333H20.2254V20.2222H17.3381V17.3333ZM14.4509 20.2222H17.3381V23.1111H14.4509V20.2222ZM20.2254 20.2222H23.1127V23.1111H20.2254V20.2222ZM23.1127 23.1111H26V26H23.1127V23.1111ZM17.3381 23.1111H20.2254V26H17.3381V23.1111ZM20.2254 14.4444H23.1127V17.3333H20.2254V14.4444ZM23.1127 17.3333H26V20.2222H23.1127V17.3333Z" fill="#F8FAFF"/>
</svg>
