<svg width="49" height="48" viewBox="0 0 49 48" fill="none" xmlns="http://www.w3.org/2000/svg">
<path d="M24.2746 0.00705033C17.2231 0.19369 10.9698 3.41988 6.71228 8.43248L3.19982 4.93966C3.01224 4.75541 2.77442 4.63093 2.51634 4.58189C2.25826 4.53285 1.99147 4.56146 1.74959 4.66411C1.50771 4.76676 1.30157 4.93885 1.15714 5.1587C1.01271 5.37855 0.936468 5.63632 0.938011 5.89952V17.3378C0.938011 18.0844 1.52342 18.671 2.26849 18.671H13.684C14.8814 18.671 15.4668 17.2312 14.6153 16.4046L10.4908 12.2453C13.9235 8.0592 19.0857 5.3396 24.8866 5.3396C36.3819 5.3396 45.4824 15.8447 43.1407 27.763C41.7038 35.1486 35.6635 41.041 28.2926 42.3475C18.181 44.1606 9.18697 37.7082 6.87194 28.5895C6.55262 27.4697 5.48824 26.6698 4.31742 26.6698C2.5878 26.6698 1.28394 28.2962 1.70969 29.9493C4.34403 40.3211 13.7106 48 24.8866 48C38.351 48 49.2077 36.8816 48.8352 23.3103C48.4627 10.2989 37.26 -0.312903 24.2746 0.00705033Z" fill="#F8FAFF"/>
<circle cx="25.2075" cy="24" r="6" fill="white"/>
</svg>
