<svg width="17" height="16" viewBox="0 0 17 16" fill="none" xmlns="http://www.w3.org/2000/svg">
<path d="M15.9839 14.8499L10.7795 9.65596C11.5871 8.61396 12.024 7.33997 12.024 5.99997C12.024 4.39598 11.3968 2.89199 10.2625 1.75799C9.12822 0.623997 7.61721 0 6.012 0C4.4068 0 2.89578 0.625997 1.76152 1.75799C0.625248 2.88999 0 4.39598 0 5.99997C0 7.60197 0.627252 9.10996 1.76152 10.242C2.89578 11.376 4.40479 11.9999 6.012 11.9999C7.35468 11.9999 8.62923 11.564 9.67331 10.76L14.8777 15.9519C14.893 15.9672 14.9111 15.9793 14.931 15.9875C14.951 15.9958 14.9723 16 14.9939 16C15.0155 16 15.0369 15.9958 15.0568 15.9875C15.0768 15.9793 15.0949 15.9672 15.1102 15.9519L15.9839 15.0819C15.9992 15.0667 16.0113 15.0486 16.0196 15.0287C16.0278 15.0088 16.0321 14.9875 16.0321 14.9659C16.0321 14.9444 16.0278 14.9231 16.0196 14.9032C16.0113 14.8833 15.9992 14.8652 15.9839 14.8499ZM9.18634 9.16796C8.33664 10.014 7.21039 10.48 6.012 10.48C4.81361 10.48 3.68736 10.014 2.83766 9.16796C1.98997 8.31996 1.52304 7.19597 1.52304 5.99997C1.52304 4.80398 1.98997 3.67798 2.83766 2.83199C3.68736 1.98599 4.81361 1.51999 6.012 1.51999C7.21039 1.51999 8.33865 1.98399 9.18634 2.83199C10.034 3.67998 10.501 4.80398 10.501 5.99997C10.501 7.19597 10.034 8.32196 9.18634 9.16796Z" fill="#F5F5FB"/>
</svg>
