<svg width="155" height="155" viewBox="0 0 155 155" fill="none" xmlns="http://www.w3.org/2000/svg">
<circle cx="78.5" cy="78.5" r="71.5" fill="#F5F5FB"/>
<path d="M77.4991 0.131592C62.1973 0.131592 47.2391 4.66912 34.516 13.1704C21.793 21.6716 11.8766 33.7548 6.02088 47.8918C0.165114 62.0289 -1.36702 77.5849 1.61822 92.5928C4.60346 107.601 11.972 121.386 22.792 132.206C33.6121 143.026 47.3977 150.395 62.4055 153.38C77.4133 156.365 92.9693 154.833 107.106 148.977C121.243 143.122 133.327 133.205 141.828 120.482C150.329 107.759 154.867 92.801 154.867 77.4991C154.867 56.98 146.715 37.3012 132.206 22.792C117.697 8.28279 98.0183 0.131592 77.4991 0.131592ZM128.03 51.5326L64.4917 115.022L26.9685 77.4991C25.686 76.2167 24.9656 74.4773 24.9656 72.6636C24.9656 70.85 25.686 69.1106 26.9685 67.8282C28.2509 66.5457 29.9903 65.8253 31.804 65.8253C33.6176 65.8253 35.357 66.5457 36.6394 67.8282L64.5884 95.7772L118.456 41.9584C119.091 41.3234 119.844 40.8197 120.674 40.476C121.504 40.1324 122.393 39.9555 123.291 39.9555C124.189 39.9555 125.078 40.1324 125.908 40.476C126.738 40.8197 127.491 41.3234 128.126 41.9584C128.762 42.5934 129.265 43.3473 129.609 44.1769C129.953 45.0066 130.129 45.8958 130.129 46.7939C130.129 47.6919 129.953 48.5811 129.609 49.4108C129.265 50.2405 128.762 50.9943 128.126 51.6293L128.03 51.5326Z" fill="#651CE4"/>
</svg>
