<svg width="25" height="24" viewBox="0 0 25 24" fill="none" xmlns="http://www.w3.org/2000/svg">
<path d="M15.9356 0C15.466 0 15.0157 0.202285 14.6836 0.562355C14.3516 0.922425 14.1651 1.41078 14.1651 1.92V5.76C14.1651 6.26922 14.3516 6.75757 14.6836 7.11764C15.0157 7.47771 15.466 7.68 15.9356 7.68V10.56L19.1225 7.68H23.0176C23.4872 7.68 23.9375 7.47771 24.2696 7.11764C24.6016 6.75757 24.7881 6.26922 24.7881 5.76V1.92C24.7881 1.41078 24.6016 0.922425 24.2696 0.562355C23.9375 0.202285 23.4872 0 23.0176 0H15.9356ZM7.96828 4.8C7.02914 4.8 6.12847 5.20457 5.4644 5.92471C4.80033 6.64485 4.42726 7.62157 4.42726 8.64C4.42726 9.65843 4.80033 10.6351 5.4644 11.3553C6.12847 12.0754 7.02914 12.48 7.96828 12.48C8.90742 12.48 9.80809 12.0754 10.4722 11.3553C11.1362 10.6351 11.5093 9.65843 11.5093 8.64C11.5093 7.62157 11.1362 6.64485 10.4722 5.92471C9.80809 5.20457 8.90742 4.8 7.96828 4.8ZM12.3946 14.4H3.542C2.83765 14.4 2.16214 14.7034 1.66409 15.2435C1.16603 15.7836 0.88623 16.5162 0.88623 17.28C0.88623 19.4227 1.6989 21.1392 3.03209 22.3008C4.34404 23.4432 6.10393 24 7.96828 24C9.83263 24 11.5925 23.4432 12.9045 22.3008C14.2359 21.1392 15.0503 19.4227 15.0503 17.28C15.0503 16.5162 14.7705 15.7836 14.2725 15.2435C13.7744 14.7034 13.0989 14.4 12.3946 14.4Z" fill="#96999C"/>
</svg>
