<svg width="30" height="26" viewBox="0 0 30 26" fill="none" xmlns="http://www.w3.org/2000/svg">
<path fill-rule="evenodd" clip-rule="evenodd" d="M7.50475 0.292893L1.14079 6.65686C0.750269 7.04738 0.750269 7.68054 1.14079 8.07107C1.53132 8.46159 2.16448 8.46159 2.55501 8.07107L7.21186 3.41421L7.21186 25H9.21186L9.21186 3.41421L13.8687 8.07107C14.2592 8.46159 14.8924 8.46159 15.2829 8.07107C15.6735 7.68054 15.6735 7.04738 15.2829 6.65685L8.91897 0.292893C8.52844 -0.097631 7.89528 -0.097631 7.50475 0.292893ZM22.919 25.7071L29.2829 19.3431C29.6735 18.9526 29.6735 18.3195 29.2829 17.9289C28.8924 17.5384 28.2592 17.5384 27.8687 17.9289L23.2119 22.5858V1H21.2119V22.5858L16.555 17.9289C16.1645 17.5384 15.5313 17.5384 15.1408 17.9289C14.7503 18.3195 14.7503 18.9526 15.1408 19.3431L21.5048 25.7071C21.8953 26.0976 22.5284 26.0976 22.919 25.7071Z" fill="#96999C"/>
</svg>
