<svg width="25" height="24" viewBox="0 0 25 24" fill="none" xmlns="http://www.w3.org/2000/svg">
<path d="M23.9213 0H1.93154C1.40271 0 0.975464 0.429 0.975464 0.96V23.04C0.975464 23.571 1.40271 24 1.93154 24H23.9213C24.4501 24 24.8774 23.571 24.8774 23.04V0.96C24.8774 0.429 24.4501 0 23.9213 0ZM22.9652 13.92H13.4045V10.08H22.9652V13.92ZM14.9581 12C14.9581 12.3183 15.084 12.6235 15.3081 12.8485C15.5322 13.0736 15.8362 13.2 16.1532 13.2C16.4701 13.2 16.7741 13.0736 16.9982 12.8485C17.2224 12.6235 17.3483 12.3183 17.3483 12C17.3483 11.6817 17.2224 11.3765 16.9982 11.1515C16.7741 10.9264 16.4701 10.8 16.1532 10.8C15.8362 10.8 15.5322 10.9264 15.3081 11.1515C15.084 11.3765 14.9581 11.6817 14.9581 12Z" fill="#F8FAFF"/>
</svg>
