<svg width="232" height="83" viewBox="0 0 232 83" fill="none" xmlns="http://www.w3.org/2000/svg">
<path d="M229.931 44.4849C229.038 42.0544 227.764 39.9845 226.109 38.2795C224.45 36.5737 222.459 35.2477 220.134 34.3001C217.807 33.3524 215.211 32.8783 212.345 32.8783C208.903 32.8783 205.972 33.4943 203.551 34.7267C201.128 35.9588 199.312 37.2692 198.104 38.6585V33.7437C195.802 35.3728 190.904 36.5769 185.007 36.8687V82.3366H198.295V55.8075C198.295 52.3964 199.281 49.744 201.256 47.8483C203.232 45.9539 205.846 45.0066 209.094 45.0066C211.963 45.0066 214.176 45.9066 215.738 47.7063C217.298 49.507 218.08 51.8602 218.08 54.7651V82.3366H231.269V52.4914C231.269 49.5865 230.824 46.9182 229.931 44.4849ZM166.37 82.3366H179.655V36.8793C173.681 36.6066 168.707 35.3979 166.37 33.7564V82.3366ZM134.063 82.3363V33.7314H147.35V40.3635C149.006 38.1537 151.03 36.3841 153.418 35.0584C155.808 33.7314 158.532 33.068 161.592 33.068V46.333C156.682 46.333 153.098 47.5805 150.839 50.0757C148.574 52.5712 147.446 55.9343 147.446 60.1659V82.3363H134.063ZM102.235 71.3461C104.148 71.3461 105.915 71.0141 107.541 70.3511C109.166 69.6874 110.582 68.757 111.794 67.556C113.002 66.3575 113.944 64.9669 114.614 63.3873C115.283 61.8094 115.616 60.1034 115.616 58.2715C115.616 56.503 115.266 54.8121 114.565 53.2021C113.862 51.591 112.909 50.2025 111.699 49.033C110.486 47.8645 109.07 46.9345 107.445 46.2383C105.82 45.5439 104.082 45.1959 102.235 45.1959C100.386 45.1959 98.6814 45.5439 97.1213 46.2383C95.5588 46.9345 94.2061 47.8645 93.0591 49.033C91.9117 50.2025 91.0044 51.591 90.3352 53.2021C89.666 54.8121 89.3325 56.503 89.3325 58.2715C89.3325 60.1034 89.666 61.8094 90.3352 63.3873C91.0044 64.9669 91.9117 66.3575 93.0591 67.556C94.2061 68.757 95.5588 69.6874 97.1213 70.3511C98.6814 71.0141 100.386 71.3461 102.235 71.3461ZM115.425 78.7362C113.704 80.0633 111.587 81.1046 109.07 81.8626C106.552 82.621 103.891 83 101.088 83C97.7114 83 94.5258 82.3677 91.5293 81.1046C88.535 79.8425 85.923 78.1054 83.6934 75.8942C81.462 73.683 79.6779 71.0777 78.3391 68.0774C77.0007 65.0782 76.334 61.8094 76.334 58.2715C76.334 54.7983 77.0007 51.5296 78.3391 48.4647C79.6779 45.4019 81.462 42.7488 83.6934 40.5055C85.923 38.2646 88.535 36.495 91.5293 35.2004C94.5258 33.9059 97.7114 33.2573 101.088 33.2573C103.891 33.2573 106.552 33.6526 109.07 34.442C111.587 35.2329 113.704 36.2891 115.425 37.6161V17.4358H128.71V82.3363H115.425V78.7362ZM58.459 17.4358H71.8423V82.3363H58.459V17.4358ZM26.632 45.1959C24.7829 45.1959 23.0778 45.5439 21.5178 46.2383C19.9556 46.9345 18.603 47.8645 17.4556 49.033C16.3082 50.2025 15.4009 51.591 14.7321 53.2021C14.0625 54.8121 13.7293 56.503 13.7293 58.2715C13.7293 60.1034 14.0625 61.8094 14.7321 63.3873C15.4009 64.9669 16.3082 66.3575 17.4556 67.556C18.603 68.757 19.9556 69.6874 21.5178 70.3511C23.0778 71.0141 24.7829 71.3461 26.632 71.3461C28.5444 71.3461 30.3119 71.0141 31.9375 70.3511C33.5627 69.6874 34.9781 68.757 36.1907 67.556C37.3987 66.3575 38.3409 64.9669 39.0101 63.3873C39.6796 61.8094 40.0132 60.1034 40.0132 58.2715C40.0132 56.503 39.6632 54.8121 38.9613 53.2021C38.2593 51.591 37.3057 50.2025 36.0952 49.033C34.8826 47.8645 33.4673 46.9345 31.8416 46.2383C30.2164 45.5439 28.4789 45.1959 26.632 45.1959ZM39.8218 78.7362C38.1007 80.0633 35.9833 81.1046 33.4672 81.8626C30.9486 82.621 28.2879 83 25.4846 83C22.1079 83 18.9226 82.3677 15.9258 81.1046C12.9315 79.8425 10.3199 78.1054 8.09027 75.8942C5.85853 73.683 4.07472 71.0777 2.73596 68.0774C1.39755 65.0782 0.730469 61.8094 0.730469 58.2715C0.730469 54.7983 1.39755 51.5296 2.73596 48.4647C4.07472 45.4019 5.85853 42.7488 8.09027 40.5055C10.3199 38.2646 12.9315 36.495 15.9258 35.2004C18.9226 33.9059 22.1079 33.2573 25.4846 33.2573C28.2879 33.2573 30.9486 33.6526 33.4672 34.442C35.9833 35.2329 38.1007 36.2891 39.8218 37.6161V33.7314H53.1072V82.3363H39.8218V78.7362Z" fill="#F5F5FB"/>
<path d="M193.668 16.3214L193.491 18.2623L193.18 20.1899L192.734 22.0962L192.717 22.1506L192.696 22.2043L192.672 22.2562L192.644 22.3074L192.613 22.3565L192.578 22.4039L192.54 22.4494L192.499 22.4925L192.455 22.5331L192.409 22.5716L192.359 22.6073L192.308 22.6402L192.254 22.6702L191.167 23.1944L190.046 23.6575L188.895 24.0577L187.718 24.3939L186.52 24.6641L185.305 24.8679L184.078 25.0043L182.866 25.0686L182.845 25.0725H182.227H181.609L181.587 25.0686L180.375 25.0043L179.149 24.8679L177.934 24.6641L176.736 24.3939L175.559 24.0577L174.408 23.6575L173.287 23.1944L172.2 22.6702L172.146 22.6402L172.094 22.6073L172.045 22.5716L171.998 22.5331L171.954 22.4925L171.913 22.4494L171.875 22.4039L171.841 22.3565L171.809 22.3074L171.781 22.2562L171.758 22.2043L171.737 22.1506L171.72 22.0962L171.274 20.1899L170.962 18.2623L170.785 16.3214L170.744 14.3744L170.838 12.4288L171.068 10.4925L171.433 8.57235L171.446 8.51972L171.464 8.46744L171.478 8.43141L171.484 8.41622L171.508 8.36642L171.536 8.31803L171.936 7.70942L172.379 7.12554L172.864 6.56851L173.388 6.0408L173.61 5.84476L173.95 5.54452L174.547 5.08215L175.177 4.65475L175.836 4.26514L176.523 3.91439L177.233 3.60426L177.965 3.33617L178.715 3.11081L179.48 2.92925L180.256 2.79255L181.041 2.70072L181.831 2.65515H182.227H182.623L183.412 2.70072L184.197 2.79255L184.974 2.92925L185.738 3.11081L186.489 3.33617L187.22 3.60426L187.931 3.91439L188.617 4.26514L189.277 4.65475L189.906 5.08215L190.503 5.54452L190.843 5.84476L191.065 6.0408L191.59 6.56851L192.075 7.12554L192.518 7.70942L192.918 8.31803L192.945 8.36642L192.969 8.41622L192.976 8.43141L192.99 8.46744L193.007 8.51972L193.021 8.57235L193.385 10.4925L193.616 12.4288L193.71 14.3744L193.668 16.3214ZM198.135 12.4652L198.116 12.2985L198.087 12.1339L198.047 11.9707L197.996 11.8103L197.936 11.6535L197.865 11.5006L197.784 11.3519L197.694 11.2085L197.596 11.0703L197.488 10.9386L197.371 10.8135L197.248 10.6956L197.116 10.5854L196.978 10.4829L196.834 10.389L196.629 10.2728L196.576 10.2385L196.527 10.2014L196.479 10.1611L196.434 10.1184L196.392 10.0732L196.352 10.0252L196.317 9.975L196.284 9.92272L196.255 9.86868L196.229 9.81322L196.207 9.75635L196.05 9.35262L195.866 8.95983L195.656 8.57941L195.42 8.21277L195.16 7.86166L194.877 7.52751L194.571 7.21209L194.244 6.91679L193.899 6.64198L193.854 6.60701L193.811 6.56957L193.771 6.53001L193.734 6.48833L193.698 6.44453L193.665 6.39896L193.635 6.35163L193.198 5.66673L192.715 5.01009L192.19 4.38418L191.625 3.79147L191.02 3.23479L190.381 2.7159L189.708 2.23729L189.005 1.80106L188.274 1.40827L187.518 1.06141L186.741 0.761169L185.946 0.509319L185.135 0.30657L184.313 0.153624L183.482 0.0511894L182.645 -3.05176e-05H182.227H181.808L180.972 0.0511894L180.141 0.153624L179.318 0.30657L178.508 0.509319L177.713 0.761169L176.935 1.06141L176.18 1.40827L175.449 1.80106L174.745 2.23729L174.073 2.7159L173.433 3.23479L172.829 3.79147L172.264 4.38418L171.738 5.01009L171.256 5.66673L170.818 6.35163L170.788 6.39896L170.756 6.44453L170.72 6.48833L170.682 6.53001L170.643 6.56957L170.6 6.60701L170.555 6.64198L170.209 6.91679L169.883 7.21209L169.577 7.52751L169.294 7.86166L169.033 8.21277L168.798 8.57941L168.587 8.95983L168.404 9.35262L168.247 9.75635L168.225 9.81322L168.199 9.86868L168.17 9.92272L168.137 9.975L168.101 10.0252L168.062 10.0732L168.02 10.1184L167.975 10.1611L167.927 10.2014L167.877 10.2385L167.825 10.2728L167.62 10.389L167.475 10.4829L167.337 10.5854L167.206 10.6956L167.082 10.8135L166.966 10.9386L166.858 11.0703L166.759 11.2085L166.669 11.3519L166.589 11.5006L166.518 11.6535L166.457 11.8103L166.407 11.9707L166.367 12.1339L166.338 12.2985L166.319 12.4652L166.311 12.6323L166.313 12.7997L166.671 20.441L166.68 20.5572L166.697 20.6731L166.721 20.7879L166.752 20.9005L166.79 21.0115L166.835 21.1199L166.887 21.2259L166.946 21.3279L167.011 21.4268L167.149 21.6098L167.298 21.7847L167.458 21.9503L167.629 22.1064L167.808 22.2523L167.997 22.3876L168.246 22.5448L168.296 22.5808L168.345 22.62L168.39 22.6617L168.432 22.7062L168.472 22.7528L168.509 22.8019L168.542 22.8532L168.572 22.9061L168.599 22.9605L168.878 23.6426L169.172 24.2526C169.391 24.6433 174.325 28.2455 174.325 28.2455C174.325 28.2455 176.887 29.4037 182.227 29.4037C187.567 29.4037 190.128 28.2455 190.128 28.2455C190.128 28.2455 195.062 24.6433 195.281 24.2526L195.576 23.6426L195.855 22.9605L195.882 22.9061L195.912 22.8532L195.945 22.8019L195.982 22.7528L196.021 22.7062L196.064 22.6617L196.109 22.62L196.157 22.5808L196.207 22.5448L196.457 22.3876L196.645 22.2523L196.825 22.1064L196.995 21.9503L197.155 21.7847L197.304 21.6098L197.442 21.4268L197.507 21.3279L197.566 21.2259L197.618 21.1199L197.664 21.0115L197.702 20.9005L197.733 20.7879L197.757 20.6731L197.774 20.5572L197.783 20.441L198.14 12.7997L198.143 12.6323L198.135 12.4652Z" fill="#F5F5FB"/>
<path d="M188.077 16.2131H186.57C186.381 16.2131 186.228 16.365 186.228 16.5519V17.5816C186.228 17.7692 186.153 17.9494 186.019 18.0822L185.923 18.1772C185.789 18.31 185.608 18.3842 185.419 18.3842H179.036C178.847 18.3842 178.665 18.31 178.531 18.1772L178.435 18.0822C178.301 17.9494 178.226 17.7692 178.226 17.5816V16.5519C178.226 16.365 178.073 16.2131 177.884 16.2131H176.378C176.189 16.2131 176.036 16.365 176.036 16.5519V18.0454C176.036 18.2327 176.189 18.3842 176.378 18.3842H177.512C177.702 18.3842 177.883 18.4587 178.017 18.5916C178.151 18.7244 178.226 18.9045 178.226 19.0921V20.1847C178.226 20.3886 178.394 20.5553 178.6 20.5553H178.601H185.854H185.854C186.06 20.5553 186.228 20.3886 186.228 20.1847V19.0921C186.228 18.9045 186.303 18.7244 186.437 18.5916C186.571 18.4587 186.753 18.3842 186.942 18.3842H188.077C188.265 18.3842 188.419 18.2327 188.419 18.0454V16.5519C188.419 16.365 188.265 16.2131 188.077 16.2131Z" fill="#F5F5FB"/>
</svg>
